<?xml version="1.0" encoding="UTF-8"?>
<svg xmlns="http://www.w3.org/2000/svg" version="1.1" xmlns:xlink="http://www.w3.org/1999/xlink" viewBox="0 0 300 400">
  <!-- Generator: Adobe Illustrator 29.0.1, SVG Export Plug-In . SVG Version: 2.1.0 Build 192)  -->
  <defs>
    <style>
      .st0 {
        fill: url(#linear-gradient2);
      }

      .st1 {
        stroke: #faefed;
        stroke-linecap: round;
        stroke-opacity: .8;
        stroke-width: 10px;
      }

      .st1, .st2, .st3, .st4, .st5, .st6, .st7, .st8, .st9 {
        stroke-miterlimit: 10;
      }

      .st1, .st10, .st3, .st4, .st7, .st8, .st9 {
        fill: none;
      }

      .st11 {
        clip-path: url(#clippath-4);
      }

      .st12 {
        fill: url(#linear-gradient4);
      }

      .st12, .st13 {
        opacity: .6;
      }

      .st12, .st13, .st14 {
        mix-blend-mode: overlay;
      }

      .st2 {
        fill: url(#linear-gradient1);
      }

      .st2, .st3, .st4, .st5, .st6, .st9 {
        stroke-width: 3px;
      }

      .st2, .st3, .st6 {
        stroke: #e07870;
      }

      .st15 {
        clip-path: url(#clippath-1);
      }

      .st16 {
        isolation: isolate;
      }

      .st4 {
        stroke: #f9d9d4;
      }

      .st17 {
        clip-path: url(#clippath-3);
      }

      .st5 {
        fill: #3266ad;
        stroke: #1c3d69;
      }

      .st13 {
        fill: url(#linear-gradient3);
      }

      .st14 {
        opacity: .2;
      }

      .st14, .st18 {
        fill: #fff;
      }

      .st19 {
        fill: url(#linear-gradient5);
      }

      .st6 {
        fill: url(#linear-gradient);
      }

      .st7 {
        stroke: #cc4135;
      }

      .st7, .st8 {
        stroke-width: 5px;
      }

      .st20 {
        clip-path: url(#clippath-2);
      }

      .st18 {
        mix-blend-mode: soft-light;
      }

      .st21 {
        clip-path: url(#clippath);
      }

      .st8 {
        stroke: #cc4035;
      }

      .st9 {
        stroke: #2a4a8d;
      }
    </style>
    <linearGradient id="linear-gradient" x1=".94" y1="229.03" x2="299.06" y2="229.03" gradientUnits="userSpaceOnUse">
      <stop offset="0" stop-color="#eb8d86"/>
      <stop offset=".55" stop-color="#eb8f83"/>
      <stop offset=".85" stop-color="#eb967b"/>
      <stop offset="1" stop-color="#eb9e74"/>
    </linearGradient>
    <linearGradient id="linear-gradient1" x1=".94" y1="228.53" x2="299.06" y2="228.53" gradientUnits="userSpaceOnUse">
      <stop offset="0" stop-color="#eba5a0"/>
      <stop offset=".48" stop-color="#eaa7a0"/>
      <stop offset=".74" stop-color="#eaafa3"/>
      <stop offset=".94" stop-color="#eabca9"/>
      <stop offset="1" stop-color="#eac2ab"/>
    </linearGradient>
    <clipPath id="clippath">
      <path class="st10" d="M296.84,59.04v273.2c0,33.11-66.12,59.96-147.67,59.96S1.49,365.35,1.49,332.24V59.04h295.35Z"/>
    </clipPath>
    <clipPath id="clippath-1">
      <path class="st10" d="M297.66,61.95v273.2c0,33.11-66.12,59.96-147.67,59.96S2.31,368.26,2.31,335.15V61.95h295.35Z"/>
    </clipPath>
    <clipPath id="clippath-2">
      <path class="st10" d="M346.73,316.56c-.87,11.36-4.51,22.02-10.79,31.57-1.55,2.37-4.61,2.74-6.86,1.59-.85,1.29-1.72,2.55-2.61,3.81,3.42,1.43,4.5,6.81.45,9.5-.63.41-1.25.79-1.88,1.2,3.53,1.87,3.56,8.26-1.41,9.81-2.23.69-4.45,1.35-6.68,2.02,1.18,2.5,1.11,4.58.2,6.32,1.97.11,3.94.24,5.91.38,6.25.44,6.2,8.61.76,10.25-11.5,3.48-23.12,6.46-34.84,8.98.81,1.64.65,3.45-.33,4.91.16,1.74-.64,3.52-2.86,4.65-13.38,6.8-28.22,9.04-42.97,11.06-7.94,1.08-15.9,2.07-23.87,2.96-28,4.7-56.4,7.4-84.65,10.03-3.06.29-5.18-1.54-5.92-3.73-3.26.07-6.52.03-9.77-.16-8.29.66-21.66,3.66-27.41-3.76-1.65-2.13-1.58-5.09.04-6.93-1-.64-1.67-1.68-1.99-2.85-3.71-.36-7.43-.76-11.15-1.23-1.98-.26-3.41-1.52-4.18-3.08-3.96-.17-7.91-.36-11.87-.58-3.67-.2-5.44-3.67-4.66-6.87.3-1.22.59-2.45.9-3.66-4.01-.08-9.91-.82-11.9-4.32-2.96-.78-5.89-1.64-8.8-2.55-1.32-.05-2.65-.05-4,.02-2.18.11-3.64-1.13-4.33-2.8-8.8-3.14-17.4-6.84-25.79-11.08-1.37-.69-2.07-1.85-2.26-3.13-1.61.92-3.68,1.13-5.57.07-2.51-1.41-5.01-2.84-7.53-4.25-1.67-.22-3.44-.05-5.28.47-1.68.48-3.14.04-4.21-.87-3.47.26-7.18-2.58-5.51-6.63,6.38-15.49,17.17-29.21,30.89-38.6.01,0,.02,0,.02,0,9.84-11.77,23.61-18.92,38.02-23.27,8.64-2.61,17.52-4.26,26.38-5.88,5.46-1.01,10.95-1.99,16.46-2.63.74-.49,8.16-.91,9.24-.94,6.68-.16,6.86-.07,13.54.05,6.42-.37,7.67-.72,14.07-.24,6.88-.04,5.16.27,16.76,1.67.51.06,9.2,2.77,9.68,2.96,1,.33,9.74,3.34,10.72,3.73,16.99,4.53,15.36,2.97,31.51,2.37,8.3-.31,15.67-4.69,15.99-4.69,11.58-6.38,14.37-6.25,22.72-15.12,21.4-22.74,28.31-59.99,13.05-87.41-11.29-20.3-18.76-24.34-48.91-24.52-11.56,1.36-18.94,6.45-19.75,6.77-5.07,3.4-11.02,7.14-8.93-1.27.1-.38,8.31-16.16,17.31-25.1,7.37-6.62,20.12-15.25,30.58-18.29,12.28-3.57,27.06-2.62,39.35-.93,8.97,1.23,10.93.81,21.1,4.59,4.2,1.55,7.08,2.72,10.27,4.34.69.07,3.92,1.54,4.53,1.71,2.05,1.24,5.35,3.46,7.49,4.54,2.07,1.73,4.07,1.88,6.52,3.66,4.51,3.29,9.01,2.05,13.19,5.87,8.08,7.36,13.32,17.43,14.89,28.14.08.52.08,1.02.02,1.5,1.88.48,3.54,1.81,3.93,3.83,2.71,14.16,3.92,28.5,3.62,42.9-.09,4.5-5.83,5.93-8.77,3.65-.01,10.94-.41,21.88-1.18,32.8,1.65.94,2.92,2.58,2.91,4.67-.04,4.83.05,9.65.24,14.46,4,1.23,5.35,7.49.87,9.61l-.34.17c.2,2.8.42,5.6.69,8.39,2.02.27,4.02,1.88,4.47,3.76.07-.13.13-.26.19-.38,2.41-4.97,10.7-4.23,10.23,2.02Z"/>
    </clipPath>
    <linearGradient id="linear-gradient2" x1="92.06" y1="243.45" x2="256.57" y2="407.97" gradientTransform="translate(1.28 -1.33) rotate(.26)" gradientUnits="userSpaceOnUse">
      <stop offset="0" stop-color="#3266ad"/>
      <stop offset=".45" stop-color="#2a5398"/>
      <stop offset=".99" stop-color="#224083"/>
    </linearGradient>
    <clipPath id="clippath-3">
      <path class="st10" d="M297.66,61.95v273.2c0,33.11-66.12,59.96-147.67,59.96S2.33,368.26,2.33,335.15V61.95h295.34Z"/>
    </clipPath>
    <linearGradient id="linear-gradient3" x1="-5.43" y1="200" x2="138.95" y2="200" gradientUnits="userSpaceOnUse">
      <stop offset="0" stop-color="#fff"/>
      <stop offset=".09" stop-color="#fff" stop-opacity=".97"/>
      <stop offset=".22" stop-color="#fff" stop-opacity=".89"/>
      <stop offset=".37" stop-color="#fff" stop-opacity=".76"/>
      <stop offset=".55" stop-color="#fff" stop-opacity=".58"/>
      <stop offset=".75" stop-color="#fff" stop-opacity=".34"/>
      <stop offset=".96" stop-color="#fff" stop-opacity=".06"/>
      <stop offset="1" stop-color="#fff" stop-opacity="0"/>
    </linearGradient>
    <linearGradient id="linear-gradient4" x1="243.74" y1="209.06" x2="395.04" y2="209.06" gradientUnits="userSpaceOnUse">
      <stop offset="0" stop-color="#fff" stop-opacity="0"/>
      <stop offset=".04" stop-color="#fff" stop-opacity=".06"/>
      <stop offset=".25" stop-color="#fff" stop-opacity=".34"/>
      <stop offset=".45" stop-color="#fff" stop-opacity=".58"/>
      <stop offset=".63" stop-color="#fff" stop-opacity=".76"/>
      <stop offset=".78" stop-color="#fff" stop-opacity=".89"/>
      <stop offset=".91" stop-color="#fff" stop-opacity=".97"/>
      <stop offset="1" stop-color="#fff"/>
    </linearGradient>
    <clipPath id="clippath-4">
      <path class="st10" d="M.94,61.95c0,33.64,66.74,60.9,149.06,60.9s149.06-27.26,149.06-60.9S232.32,1.06,150,1.06.94,28.32.94,61.95Z"/>
    </clipPath>
    <linearGradient id="linear-gradient5" x1=".11" y1="96.62" x2="298.23" y2="96.62" xlink:href="#linear-gradient1"/>
  </defs>
  <g class="st16">
    <g id="Cylinder_Base">
      <path class="st6" d="M299.06,60.89v275.76c0,33.42-66.74,60.52-149.06,60.52S.94,370.07.94,336.65V60.89h298.12Z"/>
      <path class="st2" d="M299.06,60.39v275.76c0,33.42-66.74,60.52-149.06,60.52S.94,369.57.94,336.15V60.39h298.12Z"/>
    </g>
    <g id="Oscillation_2">
      <g class="st21">
        <path class="st7" d="M2.42,160.71c30,0,30,150,60,150,30,0,30-150,60-150,30,0,30,150,60,150,30,0,30-150,60-150s30,150,60,150"/>
        <path class="st7" d="M2.42,185.71c50,0,50,100,100,100,50,0,50-100,100-100,50,0,50,100,100,100"/>
        <path class="st8" d="M2.31,175.71c150,0,150,120,300,120"/>
      </g>
    </g>
    <g id="wave2">
      <g class="st15">
        <g id="base">
          <path class="st5" d="M346.73,316.56c-.87,11.36-4.51,22.02-10.79,31.57-1.55,2.37-4.61,2.74-6.86,1.59-.85,1.29-1.72,2.55-2.61,3.81,3.42,1.43,4.5,6.81.45,9.5-.63.41-1.25.79-1.88,1.2,3.53,1.87,3.56,8.26-1.41,9.81-2.23.69-4.45,1.35-6.68,2.02,1.18,2.5,1.11,4.58.2,6.32,1.97.11,3.94.24,5.91.38,6.25.44,6.2,8.61.76,10.25-11.5,3.48-23.12,6.46-34.84,8.98.81,1.64.65,3.45-.33,4.91.16,1.74-.64,3.52-2.86,4.65-13.38,6.8-28.22,9.04-42.97,11.06-7.94,1.08-15.9,2.07-23.87,2.96-28,4.7-56.4,7.4-84.65,10.03-3.06.29-5.18-1.54-5.92-3.73-3.26.07-6.52.03-9.77-.16-8.29.66-21.66,3.66-27.41-3.76-1.65-2.13-1.58-5.09.04-6.93-1-.64-1.67-1.68-1.99-2.85-3.71-.36-7.43-.76-11.15-1.23-1.98-.26-3.41-1.52-4.18-3.08-3.96-.17-7.91-.36-11.87-.58-3.67-.2-5.44-3.67-4.66-6.87.3-1.22.59-2.45.9-3.66-4.01-.08-9.91-.82-11.9-4.32-2.96-.78-5.89-1.64-8.8-2.55-1.32-.05-2.65-.05-4,.02-2.18.11-3.64-1.13-4.33-2.8-8.8-3.14-17.4-6.84-25.79-11.08-1.37-.69-2.07-1.85-2.26-3.13-1.61.92-3.68,1.13-5.57.07-2.51-1.41-5.01-2.84-7.53-4.25-1.67-.22-3.44-.05-5.28.47-1.68.48-3.14.04-4.21-.87-3.47.26-7.18-2.58-5.51-6.63,6.38-15.49,17.17-29.21,30.89-38.6.01,0,.02,0,.02,0,9.84-11.77,23.61-18.92,38.02-23.27,8.64-2.61,17.52-4.26,26.38-5.88,5.46-1.01,10.95-1.99,16.46-2.63.74-.49,8.16-.91,9.24-.94,6.68-.16,6.86-.07,13.54.05,6.42-.37,7.67-.72,14.07-.24,6.88-.04,5.16.27,16.76,1.67.51.06,9.2,2.77,9.68,2.96,1,.33,9.74,3.34,10.72,3.73,16.99,4.53,15.36,2.97,31.51,2.37,8.3-.31,15.67-4.69,15.99-4.69,11.58-6.38,14.37-6.25,22.72-15.12,21.4-22.74,28.31-59.99,13.05-87.41-11.29-20.3-18.76-24.34-48.91-24.52-11.56,1.36-18.94,6.45-19.75,6.77-5.07,3.4-11.02,7.14-8.93-1.27.1-.38,8.31-16.16,17.31-25.1,7.37-6.62,20.12-15.25,30.58-18.29,12.28-3.57,27.06-2.62,39.35-.93,8.97,1.23,10.93.81,21.1,4.59,4.2,1.55,7.08,2.72,10.27,4.34.69.07,3.92,1.54,4.53,1.71,2.05,1.24,5.35,3.46,7.49,4.54,2.07,1.73,4.07,1.88,6.52,3.66,4.51,3.29,9.01,2.05,13.19,5.87,8.08,7.36,13.32,17.43,14.89,28.14.08.52.08,1.02.02,1.5,1.88.48,3.54,1.81,3.93,3.83,2.71,14.16,3.92,28.5,3.62,42.9-.09,4.5-5.83,5.93-8.77,3.65-.01,10.94-.41,21.88-1.18,32.8,1.65.94,2.92,2.58,2.91,4.67-.04,4.83.05,9.65.24,14.46,4,1.23,5.35,7.49.87,9.61l-.34.17c.2,2.8.42,5.6.69,8.39,2.02.27,4.02,1.88,4.47,3.76.07-.13.13-.26.19-.38,2.41-4.97,10.7-4.23,10.23,2.02Z"/>
        </g>
        <g id="shadow">
          <g class="st20">
            <path class="st0" d="M304.07,202.64c1.79-1.18,3.02-3.46,2.32-5.64-.16-.49-.31-.98-.47-1.47,1.69-1.35,2.46-3.61.81-5.93-4.38-6.15-11.65-10.07-17.84-14.18-6.87-4.56-13.93-8.89-21.41-12.38-14.93-6.96-31.32-10.44-47.81-9.74-28.14,1.19-54.05,14.19-72.44,35.08-2.13,3.55-3.81,7.3-5.19,11.17.1.08.21.16.32.23-.18,1.18-.27,2.37-.29,3.55-.8,2.55-.86,5.29.15,7.97.66,1.76,2.03,3.14,3.74,3.56,1.05.61,2.3.84,3.65.47,1.21-.33,2.33-1.23,3.03-2.36,1.81-1.14,2.86-3.43,2.22-5.56-.73-2.46-.87-4.26-.57-6.96.1-.92-.18-1.83-.69-2.61,27.7-8.11,61.66-10.36,81.69,14.03,10.74,13.08,13.5,31.77,12.79,48.18-.66,15.32-4.78,30.51-11.73,44.16-8.93,17.53-4.46,13.82-20.59,24.99-3.08,1.31-18.28,7.97-21.27,9.47-1.27.31-12.95,4.33-14.24,4.52-8.83,1.35-12.28,2.81-21.1,1.74-1.24-.33-21.16-.93-22.47-1.02-20.44-1.4-27.74-2.62-48.15-.22-19.01,2.24-29.29,4.9-47.39,10.78-6.32,2.05-12.63,4.38-18.63,7.25-8.05,3.49-15.42,8.34-21.38,14.69-.73.74-1.45,1.5-2.14,2.29-.28.32-.52.65-.7.99-1.24,1.55-2.4,3.18-3.48,4.89-3.43,5.47,5.2,10.54,8.61,5.09,1.05-1.67,2.21-3.22,3.44-4.69.72.56,1.58.93,2.51,1.05.55.75,1.27,1.34,2.1,1.64-7.27,4.43-13.89,9.92-19.55,16.7-4.09,4.91,2.91,12.05,7.04,7.1,3.83-4.59,8.11-8.52,12.74-11.89.87,1.09,2.22,1.84,3.86,1.98.05,0,.1,0,.16,0-.48,2.79,2.38,5.51,5.09,5.75,3.92.34,7.81.29,11.66-.12-1.19,3.05.37,6.98,4.4,6.89,10.52-.25,21.05-.69,31.55-1.52.13,1.03.57,2.02,1.37,2.75,3.53,3.28,7.57,4.23,12.29,4.55,6.13.42,12.3.52,18.44.68,3.69.09,7.38.15,11.07.2.19.38.44.73.7,1.06-4.16.98-8.31,2.05-12.44,3.23-3.37.96-4.17,3.87-3.23,6.29-1.82,1.5-2.47,3.86-1.24,6.3,1.8,3.55,5.37,4.94,9.19,5.11,5.65.25,11.56-.67,17.2-1.14,12.47-1.03,24.92-2.36,37.33-3.97,24.61-3.19,49.05-7.5,73.27-12.92,2.01-.45,3.82-2.7,3.69-4.8-.54-8.63-9.67-7.9-16.2-7.54,1.48-.56,2.96-1.11,4.43-1.69,3.53-1.38,4.55-5.08,2.57-7.79.91-.29,1.82-.59,2.74-.88,1,.21,2.1.13,3.22-.37,2.35-1.04,4.71-2.05,7.08-3.03,2.54-.86,5.08-1.74,7.61-2.63,9.71-2.56,19.31-5.56,28.79-9.03,2.49-.91,3.56-2.95,3.51-4.93.45-.32.86-.71,1.19-1.18,2.53-3.56,4.12-7.43,4.78-11.75.22-1.44-.14-2.88-.86-4.03,2.89.23,5.65.03,7.84-2.66,1.38-1.7,1.87-3.73,1.67-5.7,8.04-10.22,7.3-23.22,5.06-35.76,4.47-21.99,4.07-45.46,3.1-67.13-.04-.94-.36-1.77-.83-2.47.92-.8,1.57-1.97,1.67-3.53.82-12.77,1.65-25.53,2.47-38.3.18-2.79-1.48-4.34-3.5-4.72-.02-.42-.04-.85-.06-1.27.59-.19,1.16-.46,1.72-.83Z"/>
          </g>
        </g>
        <path class="st9" d="M346.73,316.56c-.87,11.36-4.51,22.02-10.79,31.57-1.55,2.37-4.61,2.74-6.86,1.59-.85,1.29-1.72,2.55-2.61,3.81,3.42,1.43,4.5,6.81.45,9.5-.63.41-1.25.79-1.88,1.2,3.53,1.87,3.56,8.26-1.41,9.81-2.23.69-4.45,1.35-6.68,2.02,1.18,2.5,1.11,4.58.2,6.32,1.97.11,3.94.24,5.91.38,6.25.44,6.2,8.61.76,10.25-11.5,3.48-23.12,6.46-34.84,8.98.81,1.64.65,3.45-.33,4.91.16,1.74-.64,3.52-2.86,4.65-13.38,6.8-28.22,9.04-42.97,11.06-7.94,1.08-15.9,2.07-23.87,2.96-28,4.7-56.4,7.4-84.65,10.03-3.06.29-5.18-1.54-5.92-3.73-3.26.07-6.52.03-9.77-.16-8.29.66-21.66,3.66-27.41-3.76-1.65-2.13-1.58-5.09.04-6.93-1-.64-1.67-1.68-1.99-2.85-3.71-.36-7.43-.76-11.15-1.23-1.98-.26-3.41-1.52-4.18-3.08-3.96-.17-7.91-.36-11.87-.58-3.67-.2-5.44-3.67-4.66-6.87.3-1.22.59-2.45.9-3.66-4.01-.08-9.91-.82-11.9-4.32-2.96-.78-5.89-1.64-8.8-2.55-1.32-.05-2.65-.05-4,.02-2.18.11-3.64-1.13-4.33-2.8-8.8-3.14-17.4-6.84-25.79-11.08-1.37-.69-2.07-1.85-2.26-3.13-1.61.92-3.68,1.13-5.57.07-2.51-1.41-5.01-2.84-7.53-4.25-1.67-.22-3.44-.05-5.28.47-1.68.48-3.14.04-4.21-.87-3.47.26-7.18-2.58-5.51-6.63,6.38-15.49,17.17-29.21,30.89-38.6.01,0,.02,0,.02,0,9.84-11.77,23.61-18.92,38.02-23.27,8.64-2.61,17.52-4.26,26.38-5.88,5.46-1.01,10.95-1.99,16.46-2.63.74-.49,8.16-.91,9.24-.94,6.68-.16,6.86-.07,13.54.05,6.42-.37,7.67-.72,14.07-.24,6.88-.04,5.16.27,16.76,1.67.51.06,9.2,2.77,9.68,2.96,1,.33,9.74,3.34,10.72,3.73,16.99,4.53,15.36,2.97,31.51,2.37,8.3-.31,15.67-4.69,15.99-4.69,11.58-6.38,14.37-6.25,22.72-15.12,21.4-22.74,28.31-59.99,13.05-87.41-11.29-20.3-18.76-24.34-48.91-24.52-11.56,1.36-18.94,6.45-19.75,6.77-5.07,3.4-11.02,7.14-8.93-1.27.1-.38,8.31-16.16,17.31-25.1,7.37-6.62,20.12-15.25,30.58-18.29,12.28-3.57,27.06-2.62,39.35-.93,8.97,1.23,10.93.81,21.1,4.59,4.2,1.55,7.08,2.72,10.27,4.34.69.07,3.92,1.54,4.53,1.71,2.05,1.24,5.35,3.46,7.49,4.54,2.07,1.73,4.07,1.88,6.52,3.66,4.51,3.29,9.01,2.05,13.19,5.87,8.08,7.36,13.32,17.43,14.89,28.14.08.52.08,1.02.02,1.5,1.88.48,3.54,1.81,3.93,3.83,2.71,14.16,3.92,28.5,3.62,42.9-.09,4.5-5.83,5.93-8.77,3.65-.01,10.94-.41,21.88-1.18,32.8,1.65.94,2.92,2.58,2.91,4.67-.04,4.83.05,9.65.24,14.46,4,1.23,5.35,7.49.87,9.61l-.34.17c.2,2.8.42,5.6.69,8.39,2.02.27,4.02,1.88,4.47,3.76.07-.13.13-.26.19-.38,2.41-4.97,10.7-4.23,10.23,2.02Z"/>
      </g>
    </g>
    <g id="Sheen">
      <g class="st17">
        <rect class="st13" x="-5.43" y="-18.84" width="144.38" height="437.68"/>
        <rect class="st12" x="243.74" y="-9.78" width="151.3" height="437.68"/>
        <rect class="st14" x="-96.94" y="-12.07" width="144.38" height="437.68"/>
        <rect class="st14" x="237.56" y="-22.05" width="46.7" height="437.68"/>
        <rect class="st14" x="58.9" y="-12.07" width="15.73" height="437.68"/>
      </g>
    </g>
    <g id="Cylinder_Top">
      <g id="gradient">
        <g class="st11">
          <path class="st19" d="M298.23-71.52V204.24c0,33.42-66.74,60.52-149.06,60.52S.11,237.66.11,204.24V-71.52h298.12Z"/>
          <rect class="st14" x="53.71" y="-173.34" width="60.88" height="437.68" transform="translate(77.93 -49.96) rotate(57.87)"/>
          <rect class="st14" x="101.9" y="-134.23" width="13.62" height="437.68" transform="translate(122.56 -52.45) rotate(57.87)"/>
        </g>
      </g>
      <path class="st18" d="M.94,60.89c0,33.64,66.74,60.9,149.06,60.9s149.06-27.26,149.06-60.9S232.32,0,150,0,.94,27.26.94,60.89Z"/>
      <path class="st4" d="M.94,60.89c0,33.64,66.74,60.9,149.06,60.9s149.06-27.26,149.06-60.9S232.32,0,150,0,.94,27.26.94,60.89Z"/>
      <path class="st3" d="M.96,93.21l-.02-32.33C.94,27.26,67.68,0,150,0s149.06,27.26,149.06,60.89v28.28"/>
    </g>
    <g id="Highlight">
      <line class="st1" x1="15.35" y1="110.14" x2="15.35" y2="136.28"/>
      <line class="st1" x1="15.49" y1="160.6" x2="15.49" y2="319.31"/>
    </g>
  </g>
</svg>